<svg xmlns="http://www.w3.org/2000/svg" xmlns:xlink="http://www.w3.org/1999/xlink" width="201" height="201" version="1.1" viewBox="-0.5 -0.5 201 201"><g><ellipse cx="100" cy="100" fill="#FFF" stroke="none" pointer-events="all" rx="50" ry="50"/><path fill="#FFF" stroke="none" d="M 80 10 L 120 20 L 80 30 Z" pointer-events="all" transform="rotate(270,100,20)"/><path fill="#FFF" stroke="none" d="M 80 170 L 120 180 L 80 190 Z" pointer-events="all" transform="rotate(90,100,180)"/><path fill="#FFF" stroke="none" d="M 160 90 L 200 100 L 160 110 Z" pointer-events="all"/><path fill="#FFF" stroke="none" d="M 0 90 L 40 100 L 0 110 Z" pointer-events="all" transform="rotate(180,20,100)"/><path fill="#FFF" stroke="none" d="M 137 147 L 177 157 L 137 167 Z" pointer-events="all" transform="rotate(45,157,157)"/><path fill="#FFF" stroke="none" d="M 23 147 L 63 157 L 23 167 Z" pointer-events="all" transform="rotate(135,43,157)"/><path fill="#FFF" stroke="none" d="M 23 33 L 63 43 L 23 53 Z" pointer-events="all" transform="rotate(225,43,43)"/><path fill="#FFF" stroke="none" d="M 137 33 L 177 43 L 137 53 Z" pointer-events="all" transform="rotate(315,157,43)"/></g></svg>