<svg xmlns="http://www.w3.org/2000/svg" xmlns:xlink="http://www.w3.org/1999/xlink" width="161" height="161" content="&lt;mxfile host=&quot;app.diagrams.net&quot; modified=&quot;2023-10-12T08:07:04.670Z&quot; agent=&quot;Mozilla/5.0 (Windows NT 10.0; Win64; x64; rv:109.0) Gecko/20100101 Firefox/118.0&quot; etag=&quot;qGJ5rFN0gqufM9jqv9az&quot; version=&quot;22.0.4&quot; type=&quot;device&quot;&gt; &lt;diagram name=&quot;Page-1&quot; id=&quot;N2ue-su_t6U39QmVHoOQ&quot;&gt; &lt;mxGraphModel dx=&quot;679&quot; dy=&quot;263&quot; grid=&quot;1&quot; gridSize=&quot;10&quot; guides=&quot;1&quot; tooltips=&quot;1&quot; connect=&quot;1&quot; arrows=&quot;1&quot; fold=&quot;1&quot; page=&quot;1&quot; pageScale=&quot;1&quot; pageWidth=&quot;827&quot; pageHeight=&quot;1169&quot; math=&quot;0&quot; shadow=&quot;0&quot;&gt; &lt;root&gt; &lt;mxCell id=&quot;0&quot; /&gt; &lt;mxCell id=&quot;1&quot; parent=&quot;0&quot; /&gt; &lt;mxCell id=&quot;RaL1_YO31bgCbF2MEboP-7&quot; value=&quot;&quot; style=&quot;verticalLabelPosition=bottom;verticalAlign=top;html=1;shape=mxgraph.basic.donut;dx=15.95;strokeColor=none;&quot; vertex=&quot;1&quot; parent=&quot;1&quot;&gt; &lt;mxGeometry width=&quot;80&quot; height=&quot;80&quot; as=&quot;geometry&quot; /&gt; &lt;/mxCell&gt; &lt;mxCell id=&quot;RaL1_YO31bgCbF2MEboP-8&quot; value=&quot;&quot; style=&quot;verticalLabelPosition=bottom;verticalAlign=top;html=1;shape=mxgraph.basic.donut;dx=15.95;strokeColor=none;&quot; vertex=&quot;1&quot; parent=&quot;1&quot;&gt; &lt;mxGeometry x=&quot;80&quot; width=&quot;80&quot; height=&quot;80&quot; as=&quot;geometry&quot; /&gt; &lt;/mxCell&gt; &lt;mxCell id=&quot;RaL1_YO31bgCbF2MEboP-9&quot; value=&quot;&quot; style=&quot;verticalLabelPosition=bottom;verticalAlign=top;html=1;shape=mxgraph.basic.donut;dx=15.95;strokeColor=none;&quot; vertex=&quot;1&quot; parent=&quot;1&quot;&gt; &lt;mxGeometry y=&quot;80&quot; width=&quot;80&quot; height=&quot;80&quot; as=&quot;geometry&quot; /&gt; &lt;/mxCell&gt; &lt;mxCell id=&quot;RaL1_YO31bgCbF2MEboP-10&quot; value=&quot;&quot; style=&quot;verticalLabelPosition=bottom;verticalAlign=top;html=1;shape=mxgraph.basic.donut;dx=15.95;strokeColor=none;&quot; vertex=&quot;1&quot; parent=&quot;1&quot;&gt; &lt;mxGeometry x=&quot;80&quot; y=&quot;80&quot; width=&quot;80&quot; height=&quot;80&quot; as=&quot;geometry&quot; /&gt; &lt;/mxCell&gt; &lt;mxCell id=&quot;RaL1_YO31bgCbF2MEboP-11&quot; value=&quot;&quot; style=&quot;rounded=0;whiteSpace=wrap;html=1;strokeColor=none;&quot; vertex=&quot;1&quot; parent=&quot;1&quot;&gt; &lt;mxGeometry y=&quot;64&quot; width=&quot;160&quot; height=&quot;32&quot; as=&quot;geometry&quot; /&gt; &lt;/mxCell&gt; &lt;mxCell id=&quot;RaL1_YO31bgCbF2MEboP-12&quot; value=&quot;&quot; style=&quot;rounded=0;whiteSpace=wrap;html=1;strokeColor=none;rotation=90;&quot; vertex=&quot;1&quot; parent=&quot;1&quot;&gt; &lt;mxGeometry y=&quot;64&quot; width=&quot;160&quot; height=&quot;32&quot; as=&quot;geometry&quot; /&gt; &lt;/mxCell&gt; &lt;mxCell id=&quot;RaL1_YO31bgCbF2MEboP-13&quot; value=&quot;&quot; style=&quot;rounded=0;whiteSpace=wrap;html=1;strokeColor=none;rotation=90;&quot; vertex=&quot;1&quot; parent=&quot;1&quot;&gt; &lt;mxGeometry x=&quot;-72&quot; y=&quot;72&quot; width=&quot;160&quot; height=&quot;16&quot; as=&quot;geometry&quot; /&gt; &lt;/mxCell&gt; &lt;mxCell id=&quot;RaL1_YO31bgCbF2MEboP-14&quot; value=&quot;&quot; style=&quot;rounded=0;whiteSpace=wrap;html=1;strokeColor=none;rotation=90;&quot; vertex=&quot;1&quot; parent=&quot;1&quot;&gt; &lt;mxGeometry x=&quot;72&quot; y=&quot;72&quot; width=&quot;160&quot; height=&quot;16&quot; as=&quot;geometry&quot; /&gt; &lt;/mxCell&gt; &lt;mxCell id=&quot;RaL1_YO31bgCbF2MEboP-15&quot; value=&quot;&quot; style=&quot;rounded=0;whiteSpace=wrap;html=1;strokeColor=none;&quot; vertex=&quot;1&quot; parent=&quot;1&quot;&gt; &lt;mxGeometry width=&quot;160&quot; height=&quot;16&quot; as=&quot;geometry&quot; /&gt; &lt;/mxCell&gt; &lt;mxCell id=&quot;RaL1_YO31bgCbF2MEboP-16&quot; value=&quot;&quot; style=&quot;rounded=0;whiteSpace=wrap;html=1;strokeColor=none;&quot; vertex=&quot;1&quot; parent=&quot;1&quot;&gt; &lt;mxGeometry y=&quot;144&quot; width=&quot;160&quot; height=&quot;16&quot; as=&quot;geometry&quot; /&gt; &lt;/mxCell&gt; &lt;/root&gt; &lt;/mxGraphModel&gt; &lt;/diagram&gt; &lt;/mxfile&gt;" version="1.1" viewBox="-0.5 -0.5 161 161"><g><path fill="#FFF" stroke="none" d="M 0 40 C 0 17.91 17.91 0 40 0 C 50.61 0 60.78 4.21 68.28 11.72 C 75.79 19.22 80 29.39 80 40 C 80 50.61 75.79 60.78 68.28 68.28 C 60.78 75.79 50.61 80 40 80 C 29.39 80 19.22 75.79 11.72 68.28 C 4.21 60.78 0 50.61 0 40 Z M 40 15.95 C 26.72 15.95 15.95 26.72 15.95 40 C 15.95 53.28 26.72 64.05 40 64.05 C 53.28 64.05 64.05 53.28 64.05 40 C 64.05 26.72 53.28 15.95 40 15.95 Z" pointer-events="all"/><path fill="#FFF" stroke="none" d="M 80 40 C 80 17.91 97.91 0 120 0 C 130.61 0 140.78 4.21 148.28 11.72 C 155.79 19.22 160 29.39 160 40 C 160 50.61 155.79 60.78 148.28 68.28 C 140.78 75.79 130.61 80 120 80 C 109.39 80 99.22 75.79 91.72 68.28 C 84.21 60.78 80 50.61 80 40 Z M 120 15.95 C 106.72 15.95 95.95 26.72 95.95 40 C 95.95 53.28 106.72 64.05 120 64.05 C 133.28 64.05 144.05 53.28 144.05 40 C 144.05 26.72 133.28 15.95 120 15.95 Z" pointer-events="all"/><path fill="#FFF" stroke="none" d="M 0 120 C 0 97.91 17.91 80 40 80 C 50.61 80 60.78 84.21 68.28 91.72 C 75.79 99.22 80 109.39 80 120 C 80 130.61 75.79 140.78 68.28 148.28 C 60.78 155.79 50.61 160 40 160 C 29.39 160 19.22 155.79 11.72 148.28 C 4.21 140.78 0 130.61 0 120 Z M 40 95.95 C 26.72 95.95 15.95 106.72 15.95 120 C 15.95 133.28 26.72 144.05 40 144.05 C 53.28 144.05 64.05 133.28 64.05 120 C 64.05 106.72 53.28 95.95 40 95.95 Z" pointer-events="all"/><path fill="#FFF" stroke="none" d="M 80 120 C 80 97.91 97.91 80 120 80 C 130.61 80 140.78 84.21 148.28 91.72 C 155.79 99.22 160 109.39 160 120 C 160 130.61 155.79 140.78 148.28 148.28 C 140.78 155.79 130.61 160 120 160 C 109.39 160 99.22 155.79 91.72 148.28 C 84.21 140.78 80 130.61 80 120 Z M 120 95.95 C 106.72 95.95 95.95 106.72 95.95 120 C 95.95 133.28 106.72 144.05 120 144.05 C 133.28 144.05 144.05 133.28 144.05 120 C 144.05 106.72 133.28 95.95 120 95.95 Z" pointer-events="all"/><rect width="160" height="32" x="0" y="64" fill="#FFF" stroke="none" pointer-events="all"/><rect width="160" height="32" x="0" y="64" fill="#FFF" stroke="none" pointer-events="all" transform="rotate(90,80,80)"/><rect width="160" height="16" x="-72" y="72" fill="#FFF" stroke="none" pointer-events="all" transform="rotate(90,8,80)"/><rect width="160" height="16" x="72" y="72" fill="#FFF" stroke="none" pointer-events="all" transform="rotate(90,152,80)"/><rect width="160" height="16" x="0" y="0" fill="#FFF" stroke="none" pointer-events="all"/><rect width="160" height="16" x="0" y="144" fill="#FFF" stroke="none" pointer-events="all"/></g></svg>