<svg xmlns="http://www.w3.org/2000/svg" xmlns:xlink="http://www.w3.org/1999/xlink" width="82" height="81" content="&lt;mxfile host=&quot;app.diagrams.net&quot; modified=&quot;2023-10-12T08:08:46.796Z&quot; agent=&quot;Mozilla/5.0 (Windows NT 10.0; Win64; x64; rv:109.0) Gecko/20100101 Firefox/118.0&quot; etag=&quot;eyEy3YArqXdjEN8-IDyH&quot; version=&quot;22.0.4&quot; type=&quot;device&quot;&gt; &lt;diagram name=&quot;Page-1&quot; id=&quot;N2ue-su_t6U39QmVHoOQ&quot;&gt; &lt;mxGraphModel dx=&quot;1506&quot; dy=&quot;263&quot; grid=&quot;1&quot; gridSize=&quot;10&quot; guides=&quot;1&quot; tooltips=&quot;1&quot; connect=&quot;1&quot; arrows=&quot;1&quot; fold=&quot;1&quot; page=&quot;1&quot; pageScale=&quot;1&quot; pageWidth=&quot;827&quot; pageHeight=&quot;1169&quot; math=&quot;0&quot; shadow=&quot;0&quot;&gt; &lt;root&gt; &lt;mxCell id=&quot;0&quot; /&gt; &lt;mxCell id=&quot;1&quot; parent=&quot;0&quot; /&gt; &lt;mxCell id=&quot;RaL1_YO31bgCbF2MEboP-7&quot; value=&quot;&quot; style=&quot;verticalLabelPosition=bottom;verticalAlign=top;html=1;shape=mxgraph.basic.donut;dx=15.95;strokeColor=none;&quot; vertex=&quot;1&quot; parent=&quot;1&quot;&gt; &lt;mxGeometry width=&quot;80&quot; height=&quot;80&quot; as=&quot;geometry&quot; /&gt; &lt;/mxCell&gt; &lt;mxCell id=&quot;RaL1_YO31bgCbF2MEboP-13&quot; value=&quot;&quot; style=&quot;rounded=0;whiteSpace=wrap;html=1;strokeColor=none;rotation=90;&quot; vertex=&quot;1&quot; parent=&quot;1&quot;&gt; &lt;mxGeometry x=&quot;-33&quot; y=&quot;32&quot; width=&quot;80&quot; height=&quot;16&quot; as=&quot;geometry&quot; /&gt; &lt;/mxCell&gt; &lt;mxCell id=&quot;RaL1_YO31bgCbF2MEboP-14&quot; value=&quot;&quot; style=&quot;rounded=0;whiteSpace=wrap;html=1;strokeColor=none;rotation=90;&quot; vertex=&quot;1&quot; parent=&quot;1&quot;&gt; &lt;mxGeometry x=&quot;32&quot; y=&quot;32&quot; width=&quot;80&quot; height=&quot;16&quot; as=&quot;geometry&quot; /&gt; &lt;/mxCell&gt; &lt;mxCell id=&quot;RaL1_YO31bgCbF2MEboP-15&quot; value=&quot;&quot; style=&quot;rounded=0;whiteSpace=wrap;html=1;strokeColor=none;&quot; vertex=&quot;1&quot; parent=&quot;1&quot;&gt; &lt;mxGeometry width=&quot;80&quot; height=&quot;16&quot; as=&quot;geometry&quot; /&gt; &lt;/mxCell&gt; &lt;mxCell id=&quot;RaL1_YO31bgCbF2MEboP-16&quot; value=&quot;&quot; style=&quot;rounded=0;whiteSpace=wrap;html=1;strokeColor=none;&quot; vertex=&quot;1&quot; parent=&quot;1&quot;&gt; &lt;mxGeometry y=&quot;64&quot; width=&quot;80&quot; height=&quot;16&quot; as=&quot;geometry&quot; /&gt; &lt;/mxCell&gt; &lt;/root&gt; &lt;/mxGraphModel&gt; &lt;/diagram&gt; &lt;/mxfile&gt;" version="1.1" viewBox="-0.5 -0.5 82 81"><g><path fill="#FFF" stroke="none" d="M 1 40 C 1 17.91 18.91 0 41 0 C 51.61 0 61.78 4.21 69.28 11.72 C 76.79 19.22 81 29.39 81 40 C 81 50.61 76.79 60.78 69.28 68.28 C 61.78 75.79 51.61 80 41 80 C 30.39 80 20.22 75.79 12.72 68.28 C 5.21 60.78 1 50.61 1 40 Z M 41 15.95 C 27.72 15.95 16.95 26.72 16.95 40 C 16.95 53.28 27.72 64.05 41 64.05 C 54.28 64.05 65.05 53.28 65.05 40 C 65.05 26.72 54.28 15.95 41 15.95 Z" pointer-events="all"/><rect width="80" height="16" x="-32" y="32" fill="#FFF" stroke="none" pointer-events="all" transform="rotate(90,8,40)"/><rect width="80" height="16" x="33" y="32" fill="#FFF" stroke="none" pointer-events="all" transform="rotate(90,73,40)"/><rect width="80" height="16" x="1" y="0" fill="#FFF" stroke="none" pointer-events="all"/><rect width="80" height="16" x="1" y="64" fill="#FFF" stroke="none" pointer-events="all"/></g></svg>