<?xml version="1.0" encoding="UTF-8" standalone="no"?>
<!-- Created with Inkscape (http://www.inkscape.org/) -->

<svg
        width="48"
        height="48"
        viewBox="0 0 48 48"
        version="1.1"
        id="svg5"
        xmlns="http://www.w3.org/2000/svg"
        xmlns:svg="http://www.w3.org/2000/svg">
  <defs
          id="defs2"/>
  <g
          id="layer1">
    <path
            id="path2240"
            style="fill:#ffffff;fill-opacity:1;stroke:none;stroke-width:205.224"
            d="M 26 0.14257812 L 26 13.943359 L 31.277344 1.203125 A 24.00004 24.001337 0 0 0 26 0.14257812 z M 22 0.14453125 A 24.00004 24.001337 0 0 0 16.734375 1.2285156 L 22 13.943359 L 22 0.14453125 z M 34.978516 2.71875 L 29.693359 15.478516 L 39.492188 5.6796875 A 24.00004 24.001337 0 0 0 34.978516 2.71875 z M 13.041016 2.765625 A 24.00004 24.001337 0 0 0 8.5605469 5.7324219 L 18.306641 15.478516 L 13.041016 2.765625 z M 42.320312 8.5078125 L 32.521484 18.306641 L 45.28125 13.021484 A 24.00004 24.001337 0 0 0 42.320312 8.5078125 z M 5.7402344 8.5683594 A 24.00004 24.001337 0 0 0 2.78125 13.046875 L 15.478516 18.306641 L 5.7402344 8.5683594 z M 46.796875 16.722656 L 34.054688 22 L 47.857422 22 A 24.00004 24.001337 0 0 0 46.796875 16.722656 z M 1.2148438 16.728516 A 24.00004 24.001337 0 0 0 0.125 22 L 13.941406 22 L 1.2148438 16.728516 z M 0.14257812 26 A 24.00004 24.001337 0 0 0 1.2050781 31.277344 L 13.945312 26 L 0.14257812 26 z M 34.056641 26 L 46.787109 31.273438 A 24.00004 24.001337 0 0 0 47.875 26 L 34.056641 26 z M 15.478516 29.693359 L 2.7246094 34.976562 A 24.00004 24.001337 0 0 0 5.6855469 39.486328 L 15.478516 29.693359 z M 32.523438 29.695312 L 42.261719 39.433594 A 24.00004 24.001337 0 0 0 45.21875 34.953125 L 32.523438 29.695312 z M 18.304688 32.523438 L 8.5136719 42.314453 A 24.00004 24.001337 0 0 0 13.023438 45.277344 L 18.304688 32.523438 z M 29.695312 32.523438 L 34.960938 45.240234 A 24.00004 24.001337 0 0 0 39.443359 42.271484 L 29.695312 32.523438 z M 22 34.054688 L 16.722656 46.796875 A 24.00004 24.001337 0 0 0 22 47.861328 L 22 34.054688 z M 26 34.054688 L 26 47.861328 A 24.00004 24.001337 0 0 0 31.269531 46.777344 L 26 34.054688 z M 23.945312 48 A 24.00004 24.001337 0 0 0 24 48.003906 A 24.00004 24.001337 0 0 0 24.054688 48 L 23.945312 48 z "/>
  </g>
</svg>
