<?xml version="1.0" encoding="UTF-8" standalone="no"?>
<!-- Created with Inkscape (http://www.inkscape.org/) -->

<svg
        width="48"
        height="48"
        viewBox="0 0 48 48"
        version="1.1"
        id="svg5"
        xmlns="http://www.w3.org/2000/svg"
        xmlns:svg="http://www.w3.org/2000/svg">
  <defs
          id="defs2"/>
  <g
          id="layer1">
    <path
            id="path2240"
            style="fill:#ffffff;fill-opacity:1;stroke:none;stroke-width:205.224"
            d="M 26 0.140625 L 26 20.537109 L 43.705078 10.314453 A 24.00004 24.001337 0 0 0 26 0.140625 z M 22 0.14453125 A 24.00004 24.001337 0 0 0 4.3359375 10.337891 L 22 20.535156 L 22 0.14453125 z M 45.710938 13.775391 L 28 24 L 45.683594 34.208984 A 24.00004 24.001337 0 0 0 48 24.003906 A 24.00004 24.001337 0 0 0 45.710938 13.775391 z M 2.3183594 13.792969 A 24.00004 24.001337 0 0 0 0 24.003906 A 24.00004 24.001337 0 0 0 2.3007812 34.21875 L 20 24 L 2.3183594 13.792969 z M 22 27.464844 L 4.3261719 37.667969 A 24.00004 24.001337 0 0 0 22 47.861328 L 22 27.464844 z M 26 27.464844 L 26 47.861328 A 24.00004 24.001337 0 0 0 43.666016 37.664062 L 26 27.464844 z M 23.945312 48 A 24.00004 24.001337 0 0 0 24 48.003906 A 24.00004 24.001337 0 0 0 24.054688 48 L 23.945312 48 z "/>
  </g>
</svg>
