<?xml version="1.0" encoding="UTF-8" standalone="no"?>
<!-- Created with Inkscape (http://www.inkscape.org/) -->

<svg
        width="48"
        height="48"
        viewBox="0 0 48 48"
        version="1.1"
        id="svg5"
        xmlns="http://www.w3.org/2000/svg"
        xmlns:svg="http://www.w3.org/2000/svg">
  <defs
          id="defs2"/>
  <g
          id="layer1">
    <path
            id="path2240"
            style="fill:#ffffff;fill-opacity:1;stroke:none;stroke-width:205.224"
            d="M 26 0.14257812 L 26 19.171875 L 39.492188 5.6796875 A 24.00004 24.001337 0 0 0 26 0.14257812 z M 22 0.14453125 A 24.00004 24.001337 0 0 0 8.5605469 5.7324219 L 22 19.171875 L 22 0.14453125 z M 42.320312 8.5078125 L 28.828125 22 L 47.857422 22 A 24.00004 24.001337 0 0 0 42.320312 8.5078125 z M 5.7402344 8.5683594 A 24.00004 24.001337 0 0 0 0.15234375 22 L 19.171875 22 L 5.7402344 8.5683594 z M 0.14257812 26 A 24.00004 24.001337 0 0 0 5.6855469 39.486328 L 19.171875 26 L 0.14257812 26 z M 28.828125 26 L 42.261719 39.433594 A 24.00004 24.001337 0 0 0 47.847656 26 L 28.828125 26 z M 22 28.828125 L 8.5136719 42.314453 A 24.00004 24.001337 0 0 0 22 47.861328 L 22 28.828125 z M 26 28.828125 L 26 47.861328 A 24.00004 24.001337 0 0 0 39.443359 42.271484 L 26 28.828125 z M 23.945312 48 A 24.00004 24.001337 0 0 0 24 48.003906 A 24.00004 24.001337 0 0 0 24.054688 48 L 23.945312 48 z "/>
  </g>
</svg>
