<?xml version="1.0" standalone="no"?>
<!DOCTYPE svg PUBLIC "-//W3C//DTD SVG 20010904//EN"
 "http://www.w3.org/TR/2001/REC-SVG-20010904/DTD/svg10.dtd">
<svg version="1.0" xmlns="http://www.w3.org/2000/svg"
 width="256.000000pt" height="256.000000pt" viewBox="0 0 256.000000 256.000000"
 preserveAspectRatio="xMidYMid meet">
<metadata>
Created by potrace 1.11, written by Peter Selinger 2001-2013
</metadata>
<g transform="translate(0.000000,256.000000) scale(0.100000,-0.100000)"
fill="#000000" stroke="none">
<path d="M273 2546 c-103 -33 -194 -114 -241 -214 l-27 -57 0 -995 0 -995 27
-57 c37 -80 107 -152 187 -191 l66 -32 995 0 995 0 66 32 c80 39 150 111 187
191 l27 57 0 995 0 995 -32 66 c-39 80 -111 150 -191 187 l-57 27 -980 2
c-791 1 -988 -1 -1022 -11z m2048 -32 c93 -44 142 -93 187 -182 l37 -76 0
-975 0 -976 -31 -66 c-44 -93 -93 -142 -182 -187 l-76 -37 -976 0 -976 0 -76
37 c-89 45 -138 94 -182 187 l-31 66 0 975 0 975 31 66 c18 37 48 84 68 106
41 46 137 100 198 113 24 4 471 7 993 7 l950 -2 66 -31z"/>
<path d="M1255 2345 c-115 -52 -215 -102 -222 -111 -19 -26 -16 -49 18 -126
17 -38 29 -71 27 -73 -7 -7 -301 -135 -304 -132 -2 2 -20 37 -41 78 -53 104
-54 104 -313 -11 -112 -50 -209 -95 -216 -101 -27 -22 -25 -60 7 -130 18 -38
29 -72 25 -76 -3 -4 -34 -19 -68 -34 -35 -15 -64 -32 -66 -38 -2 -7 142 -349
151 -357 1 -1 36 13 77 32 41 18 80 34 87 34 10 0 30 -96 21 -105 -2 -3 -40
-12 -84 -21 -43 -9 -80 -17 -82 -19 -3 -3 78 -378 83 -384 3 -2 39 3 80 12 42
10 80 17 85 17 6 0 10 -25 10 -55 l0 -55 -90 0 -90 0 0 -195 0 -195 925 0 925
0 0 195 0 195 -90 0 -90 0 0 83 c0 123 15 117 -283 117 -299 0 -287 5 -287
-120 l0 -80 -170 0 -170 0 0 74 c0 99 -18 124 -96 128 -45 2 49 25 533 127
323 69 594 126 601 129 6 2 12 13 12 23 0 30 -71 353 -79 362 -4 4 -36 1 -72
-8 -105 -24 -104 -25 -118 53 -13 70 -40 112 -72 112 -18 0 -427 -85 -462 -96
-10 -3 -25 -16 -33 -29 -14 -22 -14 -31 0 -101 9 -42 15 -78 14 -79 -2 -2 -75
-18 -163 -37 l-160 -34 -18 75 c-23 97 -42 115 -112 107 -39 -5 70 47 500 239
303 136 553 249 556 253 5 6 -139 344 -152 356 -2 2 -42 -13 -89 -34 l-85 -38
-36 77 c-36 77 -50 91 -92 91 -12 0 -116 -43 -232 -95z"/>
</g>
</svg>
